<?xml version="1.0" encoding="utf-8"?>
<svg version="1.1" id="Layer_1" xmlns="http://www.w3.org/2000/svg" xmlns:xlink="http://www.w3.org/1999/xlink" x="0px" y="0px"
	 viewBox="0 0 512 512" style="enable-background:new 0 0 512 512;" xml:space="preserve">
<g>
	<path d="M162.9,23.3V0C98.6,0,46.6,52.1,46.5,116.4c0,43,23.4,80.7,58.2,100.8l11.6-20.1H93.1v175.4h325.8V197h-23.3l11.6,20.1
		c34.8-20.1,58.2-57.8,58.2-100.8C465.4,52.1,413.4,0,349.1,0H162.9V23.3v23.3h186.2c38.5,0.1,69.7,31.3,69.8,69.8
		c0,25.9-14,48.4-34.9,60.5l-11.6,6.7v142.2H139.6l0-142.2l-11.6-6.7c-20.9-12.1-34.9-34.6-34.9-60.5c0.1-38.5,31.3-69.7,69.8-69.8
		V23.3z M240.2,136.7l20.1,11.6l0.1-0.2l0.2,0.1l0,0l39.9,23l0,0l0.1,0.1l0,0l-0.1,0.2l-0.8,1.3l-22.3,38.6l0,0l-0.1,0.1l0,0
		l-0.2-0.1l-39.9-23h0l-0.2-0.1l0,0l0.1-0.2l0,0l23.1-39.9l0,0L240.2,136.7l-20.2-11.6L197,165l0,0c-4.2,7.3-6.3,15.5-6.3,23.4
		c0,16.2,8.6,31.9,23.4,40.4h0l39.9,23.1l0,0c7.3,4.2,15.4,6.3,23.4,6.3c16.2,0,31.9-8.6,40.4-23.4l0,0l23-39.9l0,0
		c4.2-7.3,6.3-15.5,6.3-23.4c0-16.2-8.6-31.9-23.4-40.4l0,0l-39.9-23l0,0c-7.3-4.2-15.5-6.3-23.5-6.3c-16.2,0-31.9,8.6-40.4,23.4
		l0,0L240.2,136.7z M139.6,395.6v46.5h46.5v-46.5H139.6z M232.7,395.6V512h46.5V395.6H232.7z M325.8,395.6v69.8h46.5v-69.8H325.8z"
		/>
</g>
</svg>
